<?xml version="1.0" encoding="UTF-8"?>
<svg width="17px" height="14px" viewBox="0 0 17 14" version="1.1" xmlns="http://www.w3.org/2000/svg" xmlns:xlink="http://www.w3.org/1999/xlink">
    <!-- Generator: sketchtool 53.1 (72631) - https://sketchapp.com -->
    <title>C389F546-DEA2-4D22-9656-4B2CF9EC7EF5</title>
    <desc>Created with sketchtool.</desc>
    <g id="TOC-Page" stroke="none" stroke-width="1" fill="none" fill-rule="evenodd">
        <g id="TOC" transform="translate(-320.000000, -310.000000)" fill="#024F9D">
            <path d="M329.842105,310 L320,310 L320,312 L329.842105,312 L329.842105,310 L329.842105,310 Z M329.842105,314 L320,314 L320,316 L329.842105,316 L329.842105,314 L329.842105,314 Z M320,320 L326.263158,320 L326.263158,318 L320,318 L320,320 L320,320 Z M331.887218,310 L331.887218,318.18 C331.570226,318.07 331.222556,318 330.864662,318 C329.167218,318 327.796992,319.34 327.796992,321 C327.796992,322.66 329.167218,324 330.864662,324 C332.562105,324 333.932331,322.66 333.932331,321 L333.932331,312 L337,312 L337,310 L331.887218,310 L331.887218,310 Z" id="Audio"></path>
        </g>
    </g>
</svg>