<?xml version="1.0" encoding="UTF-8"?>
<svg width="17px" height="14px" viewBox="0 0 17 14" version="1.1" xmlns="http://www.w3.org/2000/svg" xmlns:xlink="http://www.w3.org/1999/xlink">
    <!-- Generator: sketchtool 53.1 (72631) - https://sketchapp.com -->
    <title>C0014774-8BAE-40C0-BEB3-6B1D9CC0322F</title>
    <desc>Created with sketchtool.</desc>
    <g id="TOC-Page" stroke="none" stroke-width="1" fill="none" fill-rule="evenodd">
        <g id="SVG-Icon" transform="translate(-263.000000, -310.000000)" fill="#FFFFFF">
            <path d="M272.842105,310 L263,310 L263,312 L272.842105,312 L272.842105,310 L272.842105,310 Z M272.842105,314 L263,314 L263,316 L272.842105,316 L272.842105,314 L272.842105,314 Z M263,320 L269.263158,320 L269.263158,318 L263,318 L263,320 L263,320 Z M274.887218,310 L274.887218,318.18 C274.570226,318.07 274.222556,318 273.864662,318 C272.167218,318 270.796992,319.34 270.796992,321 C270.796992,322.66 272.167218,324 273.864662,324 C275.562105,324 276.932331,322.66 276.932331,321 L276.932331,312 L280,312 L280,310 L274.887218,310 L274.887218,310 Z" id="Audio"></path>
        </g>
    </g>
</svg>