<?xml version="1.0" encoding="UTF-8"?>
<svg width="14px" height="16px" viewBox="0 0 14 16" version="1.1" xmlns="http://www.w3.org/2000/svg" xmlns:xlink="http://www.w3.org/1999/xlink">
    <!-- Generator: sketchtool 55.2 (78181) - https://sketchapp.com -->
    <title>99DDF4B1-841E-428E-B722-352905F1836C@1.5x</title>
    <desc>Created with sketchtool.</desc>
    <g id="Library" stroke="none" stroke-width="1" fill="none" fill-rule="evenodd">
        <g id="Library_single_textbook" transform="translate(-8.000000, -359.000000)" fill="#FFFFFF" fill-rule="nonzero">
            <g id="Group" transform="translate(8.000000, 358.000000)">
                <g id="book" transform="translate(-0.000000, 1.000000)">
                    <g id="Combined-Shape">
                        <path d="M10.8512112,16 L0,16 L0,14.4761905 L10.8512112,14.4761905 C11.2792796,14.4761905 11.6262977,14.1350741 11.6262977,13.7142857 C11.6262977,13.2934974 11.2792796,12.952381 10.8512112,12.952381 L0,12.952381 L0,0.761904762 L0,0 L10.0761247,0 C12.0037914,0 13.1764708,0.768490575 13.1764708,2.28571429 L13.1764708,13.7142857 C13.1764708,14.9766508 12.1354166,16 10.8512112,16 Z M11.6262975,11.5586328 L11.6262975,2.2857143 C11.6262975,1.77119199 11.2488038,1.52380955 10.0761244,1.52380955 L10.0761244,11.4285713 L10.851211,11.4285713 C11.1229837,11.4285713 11.3838668,11.4744031 11.6262975,11.5586328 Z M8.52595161,11.4285714 L8.52595161,1.52380955 L1.55017305,1.52380955 L1.55017305,11.4285714 L8.52595161,11.4285714 Z M3.1003461,4.57142864 L3.1003461,3.04761909 L6.97577878,3.04761909 L6.97577878,4.57142864 L3.1003461,4.57142864 Z" transform="translate(6.588235, 8.000000) scale(-1, 1) translate(-6.588235, -8.000000) "></path>
                    </g>
                </g>
            </g>
        </g>
    </g>
</svg>
