<?xml version="1.0" encoding="UTF-8"?>
<svg width="12px" height="14px" viewBox="0 0 12 14" version="1.1" xmlns="http://www.w3.org/2000/svg" xmlns:xlink="http://www.w3.org/1999/xlink">
    <!-- Generator: sketchtool 53.1 (72631) - https://sketchapp.com -->
    <title>5D911A63-577E-45C7-843B-5298818A8192</title>
    <desc>Created with sketchtool.</desc>
    <g id="TOC-Page" stroke="none" stroke-width="1" fill="none" fill-rule="evenodd">
        <g id="SVG-Icon" transform="translate(-96.000000, -310.000000)" fill="#FFFFFF">
            <path d="M103.5,310 L97.5,310 C96.675,310 96.0075,310.63 96.0075,311.4 L96,322.6 C96,323.37 96.6675,324 97.4925,324 L106.5,324 C107.325,324 108,323.37 108,322.6 L108,314.2 L103.5,310 L103.5,310 Z M105,321.2 L99,321.2 L99,319.8 L105,319.8 L105,321.2 L105,321.2 Z M105,318.4 L99,318.4 L99,317 L105,317 L105,318.4 L105,318.4 Z M102.75,314.9 L102.75,311.05 L106.875,314.9 L102.75,314.9 L102.75,314.9 Z" id="Doc"></path>
        </g>
    </g>
</svg>