<?xml version="1.0" encoding="UTF-8"?>
<svg width="12px" height="14px" viewBox="0 0 12 14" version="1.1" xmlns="http://www.w3.org/2000/svg" xmlns:xlink="http://www.w3.org/1999/xlink">
    <!-- Generator: sketchtool 53.1 (72631) - https://sketchapp.com -->
    <title>6829E626-10ED-4CF0-8C3B-ABC30BEFC45C</title>
    <desc>Created with sketchtool.</desc>
    <g id="TOC-Page" stroke="none" stroke-width="1" fill="none" fill-rule="evenodd">
        <g id="TOC" transform="translate(-153.000000, -310.000000)" fill="#024F9D">
            <path d="M160.5,310 L154.5,310 C153.675,310 153.0075,310.63 153.0075,311.4 L153,322.6 C153,323.37 153.6675,324 154.4925,324 L163.5,324 C164.325,324 165,323.37 165,322.6 L165,314.2 L160.5,310 L160.5,310 Z M162,321.2 L156,321.2 L156,319.8 L162,319.8 L162,321.2 L162,321.2 Z M162,318.4 L156,318.4 L156,317 L162,317 L162,318.4 L162,318.4 Z M159.75,314.9 L159.75,311.05 L163.875,314.9 L159.75,314.9 L159.75,314.9 Z" id="Doc"></path>
        </g>
    </g>
</svg>