<?xml version="1.0" encoding="UTF-8"?>
<svg width="12px" height="12px" viewBox="0 0 24 24" version="1.1" xmlns="http://www.w3.org/2000/svg" xmlns:xlink="http://www.w3.org/1999/xlink">
    <!-- Generator: sketchtool 53.1 (72631) - https://sketchapp.com -->
    <title>7DC59278-8C23-449E-AE6C-E87FA8F505CF</title>
    <desc>Created with sketchtool.</desc>
    <g id="Search-Page" stroke="none" stroke-width="1" fill="none" fill-rule="evenodd">
        <g id="03-Search--typing-text" transform="translate(-320.000000, -37.000000)">
            <g id="diksha_outline-search-24px" transform="translate(320.000000, 37.000000)">
                <g id="outline-search-24px-(1)">
                    <polygon id="Path" points="0 0 24 0 24 24 0 24"></polygon>
                    <path d="M17.1526587,15.0943396 L16.0686106,15.0943396 L15.6843911,14.7238422 C17.0291595,13.1595197 17.838765,11.1286449 17.838765,8.9193825 C17.838765,3.99313894 13.8456261,0 8.9193825,0 C3.99313894,0 0,3.99313894 0,8.9193825 C0,13.8456261 3.99313894,17.838765 8.9193825,17.838765 C11.1286449,17.838765 13.1595197,17.0291595 14.7238422,15.6843911 L15.0943396,16.0686106 L15.0943396,17.1526587 L21.9554031,24 L24,21.9554031 L17.1526587,15.0943396 Z M9,15 C5.68,15 3,12.32 3,9 C3,5.68 5.68,3 9,3 C12.32,3 15,5.68 15,9 C15,12.32 12.32,15 9,15 Z" id="Shape" fill="#024F9D" fill-rule="nonzero"></path>
                </g>
            </g>
        </g>
    </g>
</svg>
