<?xml version="1.0" encoding="UTF-8"?>
<svg width="12px" height="12px" viewBox="0 0 12 12" version="1.1" xmlns="http://www.w3.org/2000/svg" xmlns:xlink="http://www.w3.org/1999/xlink">
  <!-- Generator: sketchtool 53.1 (72631) - https://sketchapp.com -->
  <title>6D93004D-31F6-4532-B31D-1B3DB7B10EBF</title>
  <desc>Created with sketchtool.</desc>
  <g id="Search-Page" stroke="none" stroke-width="1" fill="none" fill-rule="evenodd">
    <g id="02-Search---empty-state-with-Recent-searches" transform="translate(-332.000000, -92.000000)">
      <g id="outline-search-24px-(1)-copy-3" transform="translate(332.000000, 92.000000)">
        <polygon id="Path" points="0 0 12 0 12 12 0 12"></polygon>
        <path d="M8.57632933,7.54716981 L8.03430532,7.54716981 L7.84219554,7.3619211 C8.51457976,6.57975986 8.9193825,5.56432247 8.9193825,4.45969125 C8.9193825,1.99656947 6.92281304,0 4.45969125,0 C1.99656947,0 0,1.99656947 0,4.45969125 C0,6.92281304 1.99656947,8.9193825 4.45969125,8.9193825 C5.56432247,8.9193825 6.57975986,8.51457976 7.3619211,7.84219554 L7.54716981,8.03430532 L7.54716981,8.57632933 L10.9777015,12 L12,10.9777015 L8.57632933,7.54716981 Z M4.5,7.5 C2.84,7.5 1.5,6.16 1.5,4.5 C1.5,2.84 2.84,1.5 4.5,1.5 C6.16,1.5 7.5,2.84 7.5,4.5 C7.5,6.16 6.16,7.5 4.5,7.5 Z" id="Shape" fill="#333333" fill-rule="nonzero"></path>
      </g>
    </g>
  </g>
</svg>
