<?xml version="1.0" encoding="UTF-8"?>
<svg width="14px" height="12px" viewBox="0 0 14 12" version="1.1" xmlns="http://www.w3.org/2000/svg">
  <!-- Generator: sketchtool 53.1 (72631) - https://sketchapp.com -->
  <title>0C05D9A1-A34B-45FC-B3E3-51F5C3F9FB43</title>
  <desc>Created with sketchtool.</desc>
  <g id="Search-Page" stroke="none" stroke-width="1" fill="none" fill-rule="evenodd">
    <g id="02-Search---empty-state-with-Recent-searches" transform="translate(-16.000000, -93.000000)" fill="#9B9B9B"
       fill-rule="nonzero">
      <g id="noun_History_251835" transform="translate(16.000000, 93.000000)">
        <g id="Group" transform="translate(0.164922, 0.128276)">
          <path
            d="M3.15774668,6.00748111 C3.15738214,5.99729409 3.15699789,5.98703082 3.1565938,5.97669086 C3.04791494,3.19578959 5.42531802,1.12863725 7.8680817,1.12863709 C10.3108454,1.12863694 12.6419511,3.05377752 12.6419517,5.97669101 C12.6419519,7.32917342 12.0138676,8.59980918 11.1858267,9.41354371 C10.2243494,10.3584092 8.98023529,10.7395033 7.93157001,10.7395033 C5.97977607,10.7395034 4.62760033,9.36002925 4.62760033,9.36002925 L3.75880398,10.1768486 C3.75880398,10.1768486 4.63645726,10.9564386 5.35810546,11.2903311 C6.07975367,11.6242237 6.29106436,11.8263698 7.8680817,11.8615701 C9.22254056,11.8918027 10.4868168,11.2866115 11.3088697,10.7395031 C13.6230819,9.19930446 13.8027639,6.9998111 13.8027634,5.99195539 C13.8027628,4.98409967 13.6019111,3.00578332 11.6749055,1.37089827 C10.7737545,0.606355361 9.60157364,2.50760185e-08 7.75701987,-7.10542736e-15 C6.03670104,-2.33871045e-08 4.72822336,0.792070309 3.87479336,1.53589317 C1.85641049,3.29505244 1.9386587,5.99195539 1.9386587,5.99195539 C1.9386587,5.99195539 1.9412563,5.99737069 1.94621219,6.00748109 L4.17443857e-14,6.00748109 L2.62184928,8.71359589 L5.32840055,6.00748109 L3.15774668,6.00748109 L3.15774668,6.00748111 Z"
            id="Path"></path>
          <polygon id="Path"
                   points="7.33319665 3.48772069 7.33319665 6.64892516 10.1427058 8.35533885 10.6205566 7.6903686 8.25830604 6.25918365 8.25830604 3.48772069"></polygon>
        </g>
      </g>
    </g>
  </g>
</svg>
