<?xml version="1.0" encoding="UTF-8"?>
<svg width="93px" height="79px" viewBox="0 0 93 79" version="1.1" xmlns="http://www.w3.org/2000/svg" xmlns:xlink="http://www.w3.org/1999/xlink">
    <!-- Generator: sketchtool 53.1 (72631) - https://sketchapp.com -->
    <title>AD7089A8-56D0-44C5-B5EF-51537549AAD8@1.5x</title>
    <desc>Created with sketchtool.</desc>
    <g id="Notification" stroke="none" stroke-width="1" fill="none" fill-rule="evenodd">
        <g id="04-Notification-empty" transform="translate(-134.000000, -213.000000)" fill="#999999" fill-rule="nonzero">
            <g id="Group-2" transform="translate(133.000000, 213.000000)">
                <g id="noun_notification_1304328" transform="translate(13.000000, 0.000000)">
                    <g id="Group">
                        <g id="Shape">
                            <path d="M47.097004,67.4763833 C46.7477567,73.8704379 41.4652864,78.9473684 35,78.9473684 C28.5347136,78.9473684 23.2522433,73.8704379 22.902996,67.4763833 L4.04189181,67.4763833 C1.8073304,67.4763833 0,65.6691099 0,63.4318082 L0,59.3792173 C0,54.9114008 3.61935538,51.2820513 8.07973237,51.2820513 C8.07449287,51.2820513 8.07692308,35.0867063 8.07692308,35.0867063 C8.07692308,23.6796115 15.1924855,13.6784163 25.5769231,9.79592699 L25.5769231,9.44028799 C25.5769231,4.22813158 29.801769,0 35,0 C40.2038074,0 44.4230769,4.22558718 44.4230769,9.44028799 L44.4230769,9.79615196 C54.8072583,13.6791582 61.9230769,23.682014 61.9230769,35.0867063 L61.9230769,51.2796987 C66.3739896,51.2820513 70,54.9099926 70,59.3792173 L70,63.4318082 C70,65.6602474 68.1867329,67.4763833 65.9581082,67.4763833 L47.097004,67.4763833 Z M41.6975359,67.4763833 L28.3024641,67.4763833 C28.6401632,70.8861826 31.5098618,73.5492578 35,73.5492578 C38.4901382,73.5492578 41.3598368,70.8861826 41.6975359,67.4763833 Z M64.6153846,62.0782726 L64.6153846,59.3792173 C64.6153846,57.8936709 63.4025215,56.6801619 61.9202676,56.6801619 C58.9450384,56.6801619 56.5384615,54.268725 56.5384615,51.2796987 L56.5384615,35.0867063 C56.5384615,25.4035265 50.1251823,16.9820688 40.984538,14.3386233 L39.0384615,13.7758242 L39.0384615,9.44028799 C39.0384615,7.20809879 37.2311795,5.39811066 35,5.39811066 C32.7735318,5.39811066 30.9615385,7.21151323 30.9615385,9.44028799 L30.9615385,13.775781 L29.0153573,14.3385248 C19.8743322,16.9816788 13.4615385,25.4011655 13.4615385,35.0867063 L13.4615385,51.2796987 C13.4615385,54.2601653 11.049075,56.6801619 8.07973237,56.6801619 C6.593503,56.6801619 5.38461538,57.8923877 5.38461538,59.3792173 L5.38461538,62.0782726 L64.6153846,62.0782726 Z"></path>
                        </g>
                    </g>
                </g>
                <rect id="Rectangle" transform="translate(47.500000, 39.500000) scale(1, -1) rotate(30.000000) translate(-47.500000, -39.500000) " x="-5" y="37" width="105" height="5" rx="2.5"></rect>
            </g>
        </g>
    </g>
</svg>