<?xml version="1.0" encoding="UTF-8"?>
<svg width="21px" height="20px" viewBox="0 0 21 20" version="1.1" xmlns="http://www.w3.org/2000/svg" xmlns:xlink="http://www.w3.org/1999/xlink">
    <!-- Generator: sketchtool 53.1 (72631) - https://sketchapp.com -->
    <title>702B5B5D-63A4-4CC3-9E89-39EC1F24F848@1.5x</title>
    <desc>Created with sketchtool.</desc>
    <g id="Notification" stroke="none" stroke-width="1" fill="none" fill-rule="evenodd">
        <g id="03-Notification-delete" transform="translate(-21.000000, -352.000000)" fill="#FFFFFF">
            <g id="noun_Delete_1378807" transform="translate(21.000000, 352.000000)">
                <g id="Group">
                    <g id="Path">
                        <path d="M17.8131423,3.6878488 L17.1185962,17.9756549 C17.1066757,18.2208763 16.8232161,18.4285714 16.4999904,18.4285714 L4.50000956,18.4285714 C4.17710351,18.4285714 3.89328686,18.2201066 3.88140379,17.9756549 L3.18685766,3.6878488 C3.16769422,3.29363 2.73271376,2.98588871 2.21530155,3.0004894 C1.69788938,3.01509011 1.29397894,3.3465038 1.31314234,3.74072263 L2.00768846,18.0285287 C2.0568927,19.0407299 3.16840691,19.8571429 4.50000956,19.8571429 L16.4999904,19.8571429 C17.8309036,19.8571429 18.9430325,19.0422693 18.9923115,18.0285287 L19.6868577,3.74072263 C19.7060211,3.3465038 19.3021106,3.01509011 18.7846985,3.0004894 C18.2672862,2.98588871 17.8323058,3.29363 17.8131423,3.6878488 Z"></path>
                        <path d="M9.75,6.57142857 L9.75,16.2857143 C9.75,16.6013056 10.0857864,16.8571429 10.5,16.8571429 C10.9142136,16.8571429 11.25,16.6013056 11.25,16.2857143 L11.25,6.57142857 C11.25,6.25583729 10.9142136,6 10.5,6 C10.0857864,6 9.75,6.25583729 9.75,6.57142857 Z"></path>
                        <path d="M5.62532419,6.58822803 L6.00032419,16.3025137 C6.01250167,16.6179686 6.35801475,16.8661739 6.77204929,16.8568959 C7.18608382,16.8476178 7.5118533,16.5843697 7.49967581,16.2689148 L7.12467581,6.55462911 C7.11249832,6.23917423 6.76698525,5.99096891 6.35295071,6.000247 C5.93891617,6.00952509 5.6131467,6.27277314 5.62532419,6.58822803 Z"></path>
                        <path d="M13.8753242,6.55462911 L13.5003242,16.2689148 C13.4881467,16.5843697 13.8139162,16.8476178 14.2279507,16.8568959 C14.6419852,16.8661739 14.9874983,16.6179686 14.9996758,16.3025137 L15.3746758,6.58822803 C15.3868533,6.27277314 15.0610838,6.00952509 14.6470493,6.000247 C14.2330148,5.99096891 13.8875017,6.23917423 13.8753242,6.55462911 Z"></path>
                        <path d="M1.125,4 L19.875,4 C20.392767,4 20.8125,3.6802034 20.8125,3.28571429 C20.8125,2.89122517 20.392767,2.57142857 19.875,2.57142857 L1.125,2.57142857 C0.607233037,2.57142857 0.1875,2.89122517 0.1875,3.28571429 C0.1875,3.6802034 0.607233037,4 1.125,4 Z"></path>
                        <path d="M7.65142871,3.05337223 L8.04180574,2.01236683 C8.12541694,1.78940363 8.50476289,1.57142857 8.80931126,1.57142857 L12.1906887,1.57142857 C12.4954314,1.57142857 12.874513,1.78921683 12.9581943,2.01236683 L13.3485713,3.05337223 L15.1514287,2.66091349 L14.7610517,1.61990809 C14.4473539,0.783380857 13.3324603,0.142857143 12.1906887,0.142857143 L8.80931126,0.142857143 C7.66767514,0.142857143 6.5525598,0.783610857 6.23894831,1.61990809 L5.84857129,2.66091349 L7.65142871,3.05337223 Z"></path>
                    </g>
                </g>
            </g>
        </g>
    </g>
</svg>