<?xml version="1.0" encoding="UTF-8"?>
<svg width="80px" height="61px" viewBox="0 0 80 61" version="1.1" xmlns="http://www.w3.org/2000/svg" xmlns:xlink="http://www.w3.org/1999/xlink">
    <!-- Generator: sketchtool 53.1 (72631) - https://sketchapp.com -->
    <title>15D50C09-6684-4A95-8AC2-7301FD9ECEA0@1.5x</title>
    <desc>Created with sketchtool.</desc>
    <g id="Notification" stroke="none" stroke-width="1" fill="none" fill-rule="evenodd">
        <g id="05-Notification-offline" transform="translate(-140.000000, -223.000000)">
            <g id="outline-cloud_off-24px-(2)" transform="translate(140.000000, 212.000000)">
                <polygon id="Path" points="0 0 80 0 80 80 0 80"></polygon>
                <path d="M80,48.46086 C80,39.5832415 73.1666667,32.3869901 64.5,31.7816979 C62.2333333,20.1802646 52.1333333,11.4707828 40,11.4707828 C35.5666667,11.4707828 31.4333333,12.6813671 27.8333333,14.7326351 L32.8,19.7431092 C35.0333333,18.7679162 37.4333333,18.1962514 40,18.1962514 C50.1333333,18.1962514 58.3333333,26.4685777 58.3333333,36.69129 L58.3333333,38.3726571 L63.3333333,38.3726571 C68.8666667,38.3726571 73.3333333,42.8787211 73.3333333,48.46086 C73.3333333,51.7899669 71.7333333,54.6819184 69.3,56.5314223 L74,61.2728776 C77.6333333,58.1791621 80,53.6394708 80,48.46086 Z M14.7,11 L10,15.7414553 L19.2333333,25.0562293 L17.8333333,25.0562293 C7.8,26.1323043 0,34.7072767 0,45.0981257 C0,56.2287762 8.96666667,65.2745314 20,65.2745314 L59.1,65.2745314 L65.7666667,72 L70.4666667,67.2585447 L14.7,11 Z M20,58.5490628 C12.6333333,58.5490628 6.66666667,52.5297685 6.66666667,45.0981257 C6.66666667,37.6664829 12.6333333,31.6471885 20,31.6471885 L25.7666667,31.6471885 L52.4333333,58.5490628 L20,58.5490628 Z" id="Shape" fill="#E55A28" fill-rule="nonzero" opacity="0.529761905"></path>
            </g>
        </g>
    </g>
</svg>