<?xml version="1.0" encoding="UTF-8"?>
<svg width="10px" height="14px" viewBox="0 0 10 14" version="1.1" xmlns="http://www.w3.org/2000/svg" xmlns:xlink="http://www.w3.org/1999/xlink">
    <!-- Generator: sketchtool 53.1 (72631) - https://sketchapp.com -->
    <title>1F7B395F-1547-48BB-9A4B-20B6752B2A97</title>
    <desc>Created with sketchtool.</desc>
    <g id="TOC-Page" stroke="none" stroke-width="1" fill="none" fill-rule="evenodd">
        <g id="TOC" transform="translate(-221.000000, -310.000000)" fill="#024F9D">
            <path d="M223.833333,315.493333 L223.833333,313 C223.833333,312.08 224.58,311.333333 225.5,311.333333 C226.42,311.333333 227.166667,312.08 227.166667,313 L227.166667,315.493333 C227.973333,314.953333 228.5,314.04 228.5,313 C228.5,311.34 227.16,310 225.5,310 C223.84,310 222.5,311.34 222.5,313 C222.5,314.04 223.026667,314.953333 223.833333,315.493333 L223.833333,315.493333 Z M230.393333,318.58 L227.366667,317.073333 C227.253333,317.026667 227.133333,317 227.006667,317 L226.5,317 L226.5,313 C226.5,312.446667 226.053333,312 225.5,312 C224.946667,312 224.5,312.446667 224.5,313 L224.5,320.16 L222.213333,319.68 C222.16,319.673333 222.113333,319.66 222.053333,319.66 C221.846667,319.66 221.66,319.746667 221.526667,319.88 L221,320.413333 L224.293333,323.706667 C224.473333,323.886667 224.726667,324 225,324 L229.526667,324 C230.026667,324 230.413333,323.633333 230.486667,323.146667 L230.986667,319.633333 C230.993333,319.586667 231,319.54 231,319.5 C231,319.086667 230.746667,318.726667 230.393333,318.58 L230.393333,318.58 Z" id="Touch"></path>
        </g>
    </g>
</svg>