<?xml version="1.0" encoding="UTF-8"?>
<svg width="10px" height="14px" viewBox="0 0 10 14" version="1.1" xmlns="http://www.w3.org/2000/svg" xmlns:xlink="http://www.w3.org/1999/xlink">
    <!-- Generator: sketchtool 53.1 (72631) - https://sketchapp.com -->
    <title>B00D8658-02DF-4F64-A27D-1BC7DCFD9C25</title>
    <desc>Created with sketchtool.</desc>
    <g id="TOC-Page" stroke="none" stroke-width="1" fill="none" fill-rule="evenodd">
        <g id="SVG-Icon" transform="translate(-164.000000, -310.000000)" fill="#FFFFFF">
            <path d="M166.833333,315.493333 L166.833333,313 C166.833333,312.08 167.58,311.333333 168.5,311.333333 C169.42,311.333333 170.166667,312.08 170.166667,313 L170.166667,315.493333 C170.973333,314.953333 171.5,314.04 171.5,313 C171.5,311.34 170.16,310 168.5,310 C166.84,310 165.5,311.34 165.5,313 C165.5,314.04 166.026667,314.953333 166.833333,315.493333 L166.833333,315.493333 Z M173.393333,318.58 L170.366667,317.073333 C170.253333,317.026667 170.133333,317 170.006667,317 L169.5,317 L169.5,313 C169.5,312.446667 169.053333,312 168.5,312 C167.946667,312 167.5,312.446667 167.5,313 L167.5,320.16 L165.213333,319.68 C165.16,319.673333 165.113333,319.66 165.053333,319.66 C164.846667,319.66 164.66,319.746667 164.526667,319.88 L164,320.413333 L167.293333,323.706667 C167.473333,323.886667 167.726667,324 168,324 L172.526667,324 C173.026667,324 173.413333,323.633333 173.486667,323.146667 L173.986667,319.633333 C173.993333,319.586667 174,319.54 174,319.5 C174,319.086667 173.746667,318.726667 173.393333,318.58 L173.393333,318.58 Z" id="Touch"></path>
        </g>
    </g>
</svg>